/* XPM */
static char *b6de50e567624940e1771c70b98a635frFpLlW6f5uVLoFPl[] = {
/* columns rows colors chars-per-pixel */
"64 64 18 1 ",
"  c #2F283A",
". c #3F3656",
"X c #49595F",
"o c #4C5F64",
"O c #425B79",
"+ c #5F837E",
"@ c #3C6F8C",
"# c #3C708D",
"$ c #3D7694",
"% c #3F80A0",
"& c #3F85A6",
"* c #648C85",
"= c #669088",
"- c #4086A7",
"; c #408AAB",
": c #408BAC",
"> c #418CAE",
", c #418EB0",
/* pixels */
",,,,,,::::   $$$,,,###    ,,,,,,---   &&&&,,,@@@   ,,,,,,,,,,   ",
",,,,,,::::   $$$,,,###    ,,,,,,---   &&&&,,,@@@   ,,,,,,,,,,   ",
",,,,,,::::   $$$,,,###    ,,,,,,---   &&&&,,,@@@   ,,,,,,,,,,   ",
",,,,,,,,,,XXX%%%,,,,,,****,,,,,,>>>ooo::::,,,;;;+++,,,,,,,,,,===",
",,,,,,,,,,XXX%%%,,,,,,****,,,,,,>>>ooo::::,,,;;;+++,,,,,,,,,,===",
",,,,,,,,,,XXX%%%,,,,,,****,,,,,,>>>ooo::::,,,;;;+++,,,,,,,,,,===",
",,,,,,,,,,===,,,,,,,,,====,,,,,,,,,===,,,,,,,,,,===,,,,,,,,,,===",
",,,,,,,,,,===,,,,,,,,,====,,,,,,,,,===,,,,,,,,,,===,,,,,,,,,,===",
",,,,,,,,,,===,,,,,,,,,====,,,,,,,,,===,,,,,,,,,,===,,,,,,,,,,===",
",,,,,,,,,,===,,,,,,,,,====,,,,,,,,,===,,,,,,,,,,===,,,,,,,,,,===",
"OOOOOOOOOO...OOOOOOOOO....OOOOOOOOO...OOOOOOOOOO...OOOOOOOOOO===",
"OOOOOOOOOO...OOOOOOOOO....OOOOOOOOO...OOOOOOOOOO...OOOOOOOOOO===",
"OOOOOOOOOO...OOOOOOOOO....OOOOOOOOO...OOOOOOOOOO...OOOOOOOOOO===",
",,,,,,,,,,   OOOOOOOOO    OOOOOOOOO   OOOOOOOOOO   ,,,,,,,,,,   ",
",,,,,,,,,,   OOOOOOOOO    OOOOOOOOO   OOOOOOOOOO   ,,,,,,,,,,   ",
",,,,,,,,,,   OOOOOOOOO    OOOOOOOOO   OOOOOOOOOO   ,,,,,,,,,,   ",
",,,,,,,,,,   .........    .........   ..........   ,,,,,,,,,,===",
",,,,,,,,,,   .........    .........   ..........   ,,,,,,,,,,===",
",,,,,,,,,,   .........    .........   ..........   ,,,,,,,,,,===",
",,,,,,,,,,   ......          ......   .......      ,,,,,,,,,,===",
",,,,,,,,,,   ......          ......   .......      ,,,,,,,,,,===",
",,,,,,,,,,   ......          ......   .......      ,,,,,,,,,,===",
"OOOOOO....                                         ...OOOOOOO===",
"OOOOOO....                                         ...OOOOOOO===",
"OOOOOO....                                         ...OOOOOOO===",
"OOOOOO....                                         ...OOOOOOO===",
",,,,,,,,,,                                         ,,,,,,,,,,   ",
",,,,,,,,,,                                         ,,,,,,,,,,   ",
",,,,,,,,,,                                         ,,,,,,,,,,   ",
",,,,,,,,,,                                         ,,,,,,,,,,===",
",,,,,,,,,,                                         ,,,,,,,,,,===",
",,,,,,,,,,                                         ,,,,,,,,,,===",
",,,,,,,,,,                                         ,,,,,,,,,,===",
",,,,,,,,,,                                         ,,,,,,,,,,===",
",,,,,,,,,,                                         ,,,,,,,,,,===",
"OOOOOO....                                         ...OOOOOOO===",
"OOOOOO....                                         ...OOOOOOO===",
"OOOOOO....                                         ...OOOOOOO===",
",,,,,,,,,,                                         ,,,,,,,,,,   ",
",,,,,,,,,,                                         ,,,,,,,,,,   ",
",,,,,,,,,,                                         ,,,,,,,,,,   ",
",,,,,,,,,,                                         ,,,,,,,,,,   ",
",,,,,,,,,,                                         ,,,,,,,,,,===",
",,,,,,,,,,                                         ,,,,,,,,,,===",
",,,,,,,,,,                                         ,,,,,,,,,,===",
",,,,,,,,,,                                         ,,,,,,,,,,===",
",,,,,,,,,,                                         ,,,,,,,,,,===",
",,,,,,,,,,                                         ,,,,,,,,,,===",
"OOOOOO....                                         ...OOOOOOO===",
"OOOOOO....                                         ...OOOOOOO===",
"OOOOOO....                                         ...OOOOOOO===",
",,,,,,,,,,...,,,,,,,,,....,,,,,,,,,...,,,,,,,,,,...,,,,,,,,,,   ",
",,,,,,,,,,...,,,,,,,,,....,,,,,,,,,...,,,,,,,,,,...,,,,,,,,,,   ",
",,,,,,,,,,...,,,,,,,,,....,,,,,,,,,...,,,,,,,,,,...,,,,,,,,,,   ",
",,,,,,,,,,===,,,,,,,,,====,,,,,,,,,===,,,,,,,,,,===,,,,,,,,,,===",
",,,,,,,,,,===,,,,,,,,,====,,,,,,,,,===,,,,,,,,,,===,,,,,,,,,,===",
",,,,,,,,,,===,,,,,,,,,====,,,,,,,,,===,,,,,,,,,,===,,,,,,,,,,===",
",,,,,,,,,,===,,,,,,,,,====,,,,,,,,,===,,,,,,,,,,===,,,,,,,,,,===",
",,,,,,,,,,===,,,,,,,,,====,,,,,,,,,===,,,,,,,,,,===,,,,,,,,,,===",
",,,,,,,,,,===,,,,,,,,,====,,,,,,,,,===,,,,,,,,,,===,,,,,,,,,,===",
",,,,,,,,,,===,,,,,,,,,====,,,,,,,,,===,,,,,,,,,,===,,,,,,,,,,===",
"OOOOOOOOOO===OOOOOOOOO====OOOOOOOOO===OOOOOOOOOO===OOOOOOOOOO===",
"OOOOOOOOOO===OOOOOOOOO====OOOOOOOOO===OOOOOOOOOO===OOOOOOOOOO===",
"OOOOOOOOOO===OOOOOOOOO====OOOOOOOOO===OOOOOOOOOO===OOOOOOOOOO==="
};
