/* XPM */
static char *_050b04e48294724ad872bed8f647a15XIMR1jK7ULkXfnH5[] = {
/* columns rows colors chars-per-pixel */
"64 64 7 1 ",
"  c #2F283A",
". c #3F3656",
"X c #425B79",
"o c #803A46",
"O c #B25D4D",
"+ c #679189",
"@ c #418EB0",
/* pixels */
"                OOOOOO                OOOOOOO                   ",
"                OOOOOO                OOOOOOO                   ",
"                OOOOOO                OOOOOOO                   ",
"@@@@@@@@@@   @@@OOOOOO    @@@@@@@@@   OOOOOOO@@@   @@@@@@@@@@   ",
"@@@@@@@@@@   @@@OOOOOO    @@@@@@@@@   OOOOOOO@@@   @@@@@@@@@@   ",
"@@@@@@@@@@   @@@OOOOOO    @@@@@@@@@   OOOOOOO@@@   @@@@@@@@@@   ",
"@@@@@@@@@@+++@@@OOOOOO++++@@@@@@@@@+++OOOOOOO@@@+++@@@@@@@@@@+++",
"@@@@@@@@@@+++@@@OOOOOO++++@@@@@@@@@+++OOOOOOO@@@+++@@@@@@@@@@+++",
"@@@@@@@@@@+++@@@OOOOOO++++@@@@@@@@@+++OOOOOOO@@@+++@@@@@@@@@@+++",
"@@@@@@@@@@+++@@@OOOOOO++++@@@@@@@@@+++OOOOOOO@@@+++@@@@@@@@@@+++",
"@@@@@@@@@@+++@@@OOOOOO++++@@@@@@@@@+++OOOOOOO@@@+++@@@@@@@@@@+++",
"@@@@@@@@@@+++@@@OOOOOO++++@@@@@@@@@+++OOOOOOO@@@+++@@@@@@@@@@+++",
"XXXXXXXXXX...XXXOOOOOO....XXXXXXXXX...OOOOOOOXXX...XXXXXXXXXX+++",
"XXXXXXXXXX...XXXOOOOOO....XXXXXXXXX...OOOOOOOXXX...XXXXXXXXXX+++",
"XXXXXXXXXX...XXXOOOOOO....XXXXXXXXX...OOOOOOOXXX...XXXXXXXXXX+++",
"@@@@@@@@@@   XXXOOOOOO    XXXXXXXXX   OOOOOOOXXX   @@@@@@@@@@   ",
"@@@@@@@@@@   XXXOOOOOO    XXXXXXXXX   OOOOOOOXXX   @@@@@@@@@@   ",
"@@@@@@@@@@   XXXOOOOOO    XXXXXXXXX   OOOOOOOXXX   @@@@@@@@@@   ",
"@@@@@@@@@@   ...OOOOOO    .........   OOOOOOO...   @@@@@@@@@@+++",
"@@@@@@@@@@   ...OOOOOO    .........   OOOOOOO...   @@@@@@@@@@+++",
"@@@@@@@@@@   ...OOOOOO    .........   OOOOOOO...   @@@@@@@@@@+++",
"@@@@@@@@@@   ...OOOOOOooooOOOOOOOOOOOOOOOOOOO...   @@@@@@@@@@+++",
"@@@@@@@@@@   ...OOOOOOooooOOOOOOOOOOOOOOOOOOO...   @@@@@@@@@@+++",
"@@@@@@@@@@   ...OOOOOOooooOOOOOOOOOOOOOOOOOOO...   @@@@@@@@@@+++",
"XXXXXX....      OOOOOO....ooooooooooooOOOOOOO      ...XXXXXXX+++",
"XXXXXX....      OOOOOO....ooooooooooooOOOOOOO      ...XXXXXXX+++",
"XXXXXX....      OOOOOO....ooooooooooooOOOOOOO      ...XXXXXXX+++",
"@@@@@@@@@@      OOOOOO                OOOOOOO      @@@@@@@@@@   ",
"@@@@@@@@@@      OOOOOO                OOOOOOO      @@@@@@@@@@   ",
"@@@@@@@@@@      OOOOOO                OOOOOOO      @@@@@@@@@@   ",
"@@@@@@@@@@      ooooooooooOOOOOOOOOOOOooooooo      @@@@@@@@@@+++",
"@@@@@@@@@@      ooooooooooOOOOOOOOOOOOooooooo      @@@@@@@@@@+++",
"@@@@@@@@@@      ooooooooooOOOOOOOOOOOOooooooo      @@@@@@@@@@+++",
"@@@@@@@@@@      ooooooooooOOOOOOOOOOOOooooooo      @@@@@@@@@@+++",
"@@@@@@@@@@      oooooo....ooooooooooooooooooo      @@@@@@@@@@+++",
"@@@@@@@@@@      oooooo....ooooooooooooooooooo      @@@@@@@@@@+++",
"@@@@@@@@@@      oooooo....ooooooooooooooooooo      @@@@@@@@@@+++",
"XXXXXX....      oooooo                ooooooo      ...XXXXXXX+++",
"XXXXXX....      oooooo                ooooooo      ...XXXXXXX+++",
"XXXXXX....      oooooo                ooooooo      ...XXXXXXX+++",
"@@@@@@@@@@      ...ooo....oooooooooooooooo...      @@@@@@@@@@   ",
"@@@@@@@@@@      ...ooo....oooooooooooooooo...      @@@@@@@@@@   ",
"@@@@@@@@@@      ...ooo....oooooooooooooooo...      @@@@@@@@@@   ",
"@@@@@@@@@@      .............................      @@@@@@@@@@+++",
"@@@@@@@@@@      .............................      @@@@@@@@@@+++",
"@@@@@@@@@@      .............................      @@@@@@@@@@+++",
"@@@@@@@@@@         ...                ....         @@@@@@@@@@+++",
"@@@@@@@@@@         ...                ....         @@@@@@@@@@+++",
"@@@@@@@@@@         ...                ....         @@@@@@@@@@+++",
"XXXXXX....                                         ...XXXXXXX+++",
"XXXXXX....                                         ...XXXXXXX+++",
"XXXXXX....                                         ...XXXXXXX+++",
"@@@@@@@@@@...@@@@@@@@@....@@@@@@@@@...@@@@@@@@@@...@@@@@@@@@@   ",
"@@@@@@@@@@...@@@@@@@@@....@@@@@@@@@...@@@@@@@@@@...@@@@@@@@@@   ",
"@@@@@@@@@@...@@@@@@@@@....@@@@@@@@@...@@@@@@@@@@...@@@@@@@@@@   ",
"@@@@@@@@@@+++@@@@@@@@@++++@@@@@@@@@+++@@@@@@@@@@+++@@@@@@@@@@+++",
"@@@@@@@@@@+++@@@@@@@@@++++@@@@@@@@@+++@@@@@@@@@@+++@@@@@@@@@@+++",
"@@@@@@@@@@+++@@@@@@@@@++++@@@@@@@@@+++@@@@@@@@@@+++@@@@@@@@@@+++",
"@@@@@@@@@@+++@@@@@@@@@++++@@@@@@@@@+++@@@@@@@@@@+++@@@@@@@@@@+++",
"@@@@@@@@@@+++@@@@@@@@@++++@@@@@@@@@+++@@@@@@@@@@+++@@@@@@@@@@+++",
"@@@@@@@@@@+++@@@@@@@@@++++@@@@@@@@@+++@@@@@@@@@@+++@@@@@@@@@@+++",
"XXXXXXXXXX+++XXXXXXXXX++++XXXXXXXXX+++XXXXXXXXXX+++XXXXXXXXXX+++",
"XXXXXXXXXX+++XXXXXXXXX++++XXXXXXXXX+++XXXXXXXXXX+++XXXXXXXXXX+++",
"XXXXXXXXXX+++XXXXXXXXX++++XXXXXXXXX+++XXXXXXXXXX+++XXXXXXXXXX+++"
};
