/* XPM */
static char *_f08b517c56343afaff42a05eac95a3bPYrgTMgtyZix2sgc[] = {
/* columns rows colors chars-per-pixel */
"64 64 36 1 ",
"  c #030101",
". c gray1",
"X c #050000",
"o c #080303",
"O c #090405",
"+ c #090909",
"@ c #0C0C0C",
"# c #2F283A",
"$ c #860001",
"% c #8B0101",
"& c #8D0303",
"* c #8E0404",
"= c #98110F",
"- c #991210",
"; c #9B1512",
": c #A01C18",
"> c #9D2212",
", c #9E2413",
"< c #A32930",
"1 c #A52930",
"2 c #A92930",
"3 c #AC2C33",
"4 c #BA3A3B",
"5 c #D31616",
"6 c #D51717",
"7 c #C03A3B",
"8 c #C13B3C",
"9 c #C23C3E",
"0 c #C43E3F",
"q c #E93838",
"w c #ED3A3A",
"e c #D45050",
"r c #D95050",
"t c #DC5353",
"y c #DD5454",
"u c #CB6D46",
/* pixels */
"###oooooooooooooooXXXXXoooXXXXXXXXXXXXXXXXXXXXXXXXXXXXXXXXXOO###",
"###oooooooooooooooXXXXXoooXXXXXXXXXXoXooXXXXXXXXoXooXXXXXXXOO###",
"   yyyyyyyyyyyyttt%%99990009009099990000009999990000009999922   ",
"   yyyyyyyyyyyyttt%%99990099000099990000099999990000099999922   ",
"   yyyyyyyyyyyyttt%%99999988988888888888998888888888999899922   ",
"   yyyyyyyyyyyyttt%%99999988998888888888998888888888998899922   ",
"   yyyyyyyyyyyyttt%%999999%%%%%%%%%%%%%%&%%%%%%%%%%%%%%%99922   ",
"   yyyyyyyyyyyyttt%%999999%%%%%%%%%%%%%%%%%%%%%%%%%%%%%%99922   ",
"   yyyyyrrrrryyttt%%999999%%---------------------;;---%%99922   ",
"   yyrrr&&***rrrrr%%999999%%---::::::::::::::::::uu---%%99922   ",
"   yyrrr&&***rrrrr%%999999%%---::::::::::::::::::uu---%%99922   ",
"   tt%%%yyrrr%%999%%999999%%---::uuu::::::::uu:::::---%%99922   ",
"   tt%%%yyrrr%%999%%999999%%---::uuu::::::::uu:::::---%%99922   ",
"   tt%%%tt999%%999%%999999%%---:::::::uuu::::::::::---%%99922   ",
"   tt%%%tt999%%999%%999999%%---:::::::uuu::::::::::---%%99922   ",
"   tt%%%99999%%999%%999999%%---::::::::::::::::::::---%%99922   ",
"   tt%%%99999%%999%%999999%%---::::::::::::::::::::---%%99922   ",
"   tt&&&22222&&999%%999999%%---:::::::::::::::uuu::---%%99922   ",
"   tt&&&22222&&999%%999999%%---:::::::::::::::uuu::---%%99922   ",
"   yyttt&&&&&99999%%999999%%---uu::::::::::::::::uu---%%99922   ",
"   yyttt&&&&&99999%%999999%%---uu::::::::::::::::uu---%%99922   ",
"   yyyyy0000000ttt%%999999%%==========================%%99922   ",
"   yyyyy0000000ttt%%999999%%==========================%%99922   ",
"   yyyyyyyyyyyyttt%%999999&&&&&&&&&&&&&&&&&&&&&&&&&&&&&&99922   ",
"   yyyyyyyyyyyyttt%%99999999999999999999999999999999999922222   ",
"   yyyyyyyyyyyyttt%%99999999999999999999999999999999999922222   ",
"+++eeeeeeeeeeeeeee$$111111111111111111111111111111111111111<<@@@",
"+++eeeeeeeeeeeeeee$$111111111111111111111111111111111111111<<@@@",
"###+++++++   ooooo  ooooooXXXXXXXXXXXXXXXXXXXX   ++++++++++@@###",
"###+++++++   ooXoo  ooooooXXXXXXXXXXXXXXXXXXXX   ++++++++++@@###",
"##########   ww666  rrryyy0099988777&&%%%%%%22   ###############",
"##########   ww666  rrryyy0009988777&&%%%%%%22   ###############",
"##########   qq555oo&&&rrr88777&&***rr%%%,,,%%   ###############",
"##########   qq555oo&&&rrr88777&&***rr%%%,,,%%   ###############",
"##########   &&%%%tt999%%%&&***yyttt99%%%,,,%%   ###############",
"##########   &&%%%tt999%%%&&***yyttt99%%%,,,$%   ###############",
"##########   tt%%%99222%%%yyyyyyy99922%%%,,,$%   ###############",
"##########   tt%%%99222%%%yyyyyyy99922%%%,,,$%   ###############",
"##########   tt&&&11222%%%rrrrryy00022%%%,,,%%   ###############",
"##########   tt&&&11222%%%rrrrryy00022%%%,,,%$   ###############",
"##########   yy999  &&&&&&&&&&&rrrrr99%%%,,,%%   ###############",
"##########   yy999  000yyy99999&&&&&rr%%%>>>%%   ###############",
"##########   yy999  000yyy99999&&&&&rr%%%>>>%%   ###############",
"##########   yy999  yyyyyy9999999999%%%%%&&&22   ###############",
"##########   yy999  yyyyyy9999999999%%%%%&&*22   ###############",
"##########   yy999  yyyyyy99999999993333333399   ###############",
"##########   yy999  yyyyyy99999999993333333399   ###############",
"##########+++ee444  yyyyyy99999999999999999999   ###############",
"##########+++ee444  yyyyyy99999999999999999999   ###############",
"#############+++++  yyyyyy99888999999999999999   ###############",
"#############+++++  yyyyyy99888999999999999999   ###############",
"##################  yyyyyy99%%%999999999999999   ###############",
"##################  yyyyyy99%%%999999999999999   ###############",
"##################  yyyyyy99$$$111111111100099   ###############",
"##################  yyyyyy99$$$111111111100099   ###############",
"##################  yyyyyy99   +++++++   yyy99   ###############",
"##################  yyyyyy99   #######   yyy99   ###############",
"##################  yyyyyy99   #######   yyy99   ###############",
"##################  yyyyyy99   #######   rrr22   ###############",
"##################  yyyyyy99   #######   rrr22   ###############",
"##################  eeeeee44   #######   111<<   ###############",
"##################  eeeeee44   #######   111<<   ###############",
"##################++++++++++@@@#######++++++++@@@###############",
"##################++++++++++@@@#######++++++++@@@###############"
};
