/* XPM */
static char *ad49525c7f644cf8e2a8f9b4b9b563be4WLd7XY3KqOlLoZ1[] = {
/* columns rows colors chars-per-pixel */
"64 64 36 1 ",
"  c gray1",
". c #070202",
"X c #090303",
"o c #090405",
"O c #090909",
"+ c #0C0C0C",
"@ c #2F283A",
"# c #860001",
"$ c #8B0101",
"% c #8C0202",
"& c #8E0404",
"* c #98110F",
"= c #991210",
"- c #9B1512",
"; c #A01C18",
": c #9D2212",
"> c #9E2413",
", c #A32930",
"< c #A52930",
"1 c #A92A31",
"2 c #AC2C32",
"3 c #BA3A3B",
"4 c #D31616",
"5 c #D51717",
"6 c #C03A3B",
"7 c #C13B3C",
"8 c #C33D3E",
"9 c #C43E3F",
"0 c #E93838",
"q c #ED3A3A",
"w c #D45050",
"e c #D55151",
"r c #DB5252",
"t c #DC5353",
"y c #DD5454",
"u c #CB6D47",
/* pixels */
"@@@oo.........................................XXXXXXXXXXXXXXX@@@",
"@@@oo.........................................XXXXXXXXXXXXXXX@@@",
"   11888888888888888888888888888888888888888$$tttyyyyyyyyyyyy   ",
"   11888888888888888888888888888888888888888$$tttyyyyyyyyyyyy   ",
"   11888777777777777777777777777777777888888$$tttyyyyyyyyyyyt   ",
"   11888777777777777777777777777777777888888$$tttyyyyyyyyyyyt   ",
"   11888$$$$$$$$$$$$$$$$$$$$$$$$$$$$$$888888$$tttyyyyyyyttttt   ",
"   11888$$$$$$$$$$$$$$$$$$$$$$$$$$$$$$888888$$tttyyyyyyyttttt   ",
"   11888$$===--=====================$$888888$$tttyyrrrrryyyyt   ",
"   11888$$===uu;;;;;;;;;;;;;;;;;;===$$888888$$rrrrr&&&%%rrryt   ",
"   11888$$===uu;;;;;;;;;;;;;;;;;;===$$888888$$rrrrr&&&%%rrryt   ",
"   11888$$===;;;;;uu;;;;;;;;uuu;;===$$888888$$888$$rrryy$$$tt   ",
"   11888$$===;;;;;uu;;;;;;;;uuu;;===$$888888$$888$$rrryy$$$tt   ",
"   11888$$===;;;;;;;;;;uuu;;;;;;;===$$888888$$888$$888tt$$$tt   ",
"   11888$$===;;;;;;;;;;uuu;;;;;;;===$$888888$$888$$888tt$$$tt   ",
"   11888$$===;;;;;;;;;;;;;;;;;;;;===$$888888$$888$$88888$$$tt   ",
"   11888$$===;;;;;;;;;;;;;;;;;;;;===$$888888$$888$$88888$$$tt   ",
"   11888$$===;;uuu;;;;;;;;;;;;;;;===$$888888$$888%%11111%%%tt   ",
"   11888$$===;;uuu;;;;;;;;;;;;;;;===$$888888$$888%%11111%%%tt   ",
"   11888$$===uu;;;;;;;;;;;;;;;;uu===$$888888$$88888%%%%%ttttt   ",
"   11888$$===uu;;;;;;;;;;;;;;;;uu===$$888888$$88888%%%%%tttyy   ",
"   11888$$**************************$$888888$$ttt9999999yyyyy   ",
"   11888$$**************************$$888888$$ttt9999999yyyyy   ",
"   11888%%%%%%%%%%%%%%%%%%%%%%%%%%%%%%888888$$tttyyyyyyyyyyyy   ",
"   11111888888888888778888888888888888888888$$rttyyyyyyyyyyyy   ",
"   11111888888888888878888888888888888888888$$rttyyyyyyyyyyyy   ",
"+++,,<<<<<<<<<<<<<<<<<<<<<<<<<<<<<<<<<<<<<<<##eeeeeeeeeeeeeeeOOO",
"+++,,<<<<<<<<<<<<<<<<<<<<<<<<<<<<<<<<<<<<<<<##eeeeeeeeeeeeeeeOOO",
"@@@++OOOOOOOOOO   ....................XXXXXX  XXXXX   OOOOOOO@@@",
"@@@++OOOOOOOOOO   ....................XXXXXX  XXXXX   OOOOOOO@@@",
"@@@@@@@@@@@@@@@   11$$$$$$%%6667788888yyyrrr  555qq   @@@@@@@@@@",
"@@@@@@@@@@@@@@@   11$$$$$$%%6667788888yyyrrr  555qq   @@@@@@@@@@",
"@@@@@@@@@@@@@@@   $$>>>$$$rr&&&%%66677rrr%%%XX44400   @@@@@@@@@@",
"@@@@@@@@@@@@@@@   $$>>>$$$rr&&&%%66677rrr%%%XX44400   @@@@@@@@@@",
"@@@@@@@@@@@@@@@   $#>>>$$$88tttyy&&&%%$$$888tt$$$%%   @@@@@@@@@@",
"@@@@@@@@@@@@@@@   $#>>>$$$88tttyy&&&%%$$$888tt$$$%%   @@@@@@@@@@",
"@@@@@@@@@@@@@@@   $#>>>$$$11888yyyyyyy$$$11188$$$tt   @@@@@@@@@@",
"@@@@@@@@@@@@@@@   $#>>>$$$11888yyyyyyy$$$11188$$$tt   @@@@@@@@@@",
"@@@@@@@@@@@@@@@   $$>>>$$$11999yyrrrrr$$$111<<%%%tt   @@@@@@@@@@",
"@@@@@@@@@@@@@@@   $$>>>$$$11999yyrrrrr$$$111<<%%%tt   @@@@@@@@@@",
"@@@@@@@@@@@@@@@   $$>>>$$$88rrrrr%%%%%%%%%%%  888yy   @@@@@@@@@@",
"@@@@@@@@@@@@@@@   $$:::$$$rr%%%%%88888yyy999  888yy   @@@@@@@@@@",
"@@@@@@@@@@@@@@@   $$:::$$$rr%%%%%88888yyy999  888yy   @@@@@@@@@@",
"@@@@@@@@@@@@@@@   11%%%$$$$$8888888888yyyyyy  888yy   @@@@@@@@@@",
"@@@@@@@@@@@@@@@   11%%%$$$$$8888888888yyyyyy  878yy   @@@@@@@@@@",
"@@@@@@@@@@@@@@@   88222222228888888888yyyyyy  778yy   @@@@@@@@@@",
"@@@@@@@@@@@@@@@   88222222228888888888yytyyy  778yy   @@@@@@@@@@",
"@@@@@@@@@@@@@@@   88888888888888888888yyyyyt  333eeOOO@@@@@@@@@@",
"@@@@@@@@@@@@@@@   88888888888888888888yyyyyy  333eeOOO@@@@@@@@@@",
"@@@@@@@@@@@@@@@   88888888888888877788yyyyyy  OOOOO@@@@@@@@@@@@@",
"@@@@@@@@@@@@@@@   88888888888888877788yyyyyy  OOOOO@@@@@@@@@@@@@",
"@@@@@@@@@@@@@@@   888888888888888$$$88yyyyyy  @@@@@@@@@@@@@@@@@@",
"@@@@@@@@@@@@@@@   888888888888888$$$88yyttyy  @@@@@@@@@@@@@@@@@@",
"@@@@@@@@@@@@@@@   88999<<<<<<<<<<###88yyttyy  @@@@@@@@@@@@@@@@@@",
"@@@@@@@@@@@@@@@   88999<<<<<<<<<<###88yyttyy  @@@@@@@@@@@@@@@@@@",
"@@@@@@@@@@@@@@@   88yyy   OOOOOOO   88yyyyyy  @@@@@@@@@@@@@@@@@@",
"@@@@@@@@@@@@@@@   88yyy   @@@@@@@   88yyyyyy  @@@@@@@@@@@@@@@@@@",
"@@@@@@@@@@@@@@@   88yyy   @@@@@@@   88yyyyyy  @@@@@@@@@@@@@@@@@@",
"@@@@@@@@@@@@@@@   11rrr   @@@@@@@   88yyyyyy  @@@@@@@@@@@@@@@@@@",
"@@@@@@@@@@@@@@@   11rrr   @@@@@@@   88yyyyyy  @@@@@@@@@@@@@@@@@@",
"@@@@@@@@@@@@@@@   ,,<<<   @@@@@@@   33eeeeee  @@@@@@@@@@@@@@@@@@",
"@@@@@@@@@@@@@@@   ,,<<<   @@@@@@@   33eeeeee  @@@@@@@@@@@@@@@@@@",
"@@@@@@@@@@@@@@@+++OOOOOOOO@@@@@@@+++OOOOOOOOOO@@@@@@@@@@@@@@@@@@",
"@@@@@@@@@@@@@@@+++OOOOOOOO@@@@@@@+++OOOOOOOOOO@@@@@@@@@@@@@@@@@@"
};
