/* XPM */
static char *_4a60dec945042c9d3e45e0e36100264Tyv9zKR3w5CH73Bo[] = {
/* columns rows colors chars-per-pixel */
"64 64 166 2 ",
"   c #010101",
".  c #060906",
"X  c #070708",
"o  c #060809",
"O  c #0A0A0A",
"+  c #0B0F11",
"@  c #0E1114",
"#  c #141414",
"$  c #151916",
"%  c #161718",
"&  c #171819",
"*  c #1A1B1B",
"=  c #132211",
"-  c #1D221E",
";  c #1D321B",
":  c #171D22",
">  c #191E22",
",  c #1C2124",
"<  c #1D2923",
"1  c #1D242A",
"2  c #212622",
"3  c #242A25",
"4  c #262D29",
"5  c #292E2A",
"6  c #273C26",
"7  c #2C322C",
"8  c #252E36",
"9  c #2D2F30",
"0  c #2F283A",
"q  c #2F3531",
"w  c #263138",
"e  c #29343C",
"r  c #323534",
"t  c #323B33",
"y  c #353739",
"u  c #3B3B3B",
"i  c #6E2626",
"p  c #7A2222",
"a  c #254122",
"s  c #2E4F2A",
"d  c #30532C",
"f  c #314F35",
"g  c #3C523E",
"h  c #355838",
"j  c #37583A",
"k  c #2F3C45",
"l  c #343F47",
"z  c #393E42",
"x  c #35434E",
"c  c #3F4448",
"v  c #3D5A41",
"b  c #364450",
"n  c #3C4A56",
"m  c #3D4C59",
"M  c #454646",
"N  c #444749",
"B  c #46494B",
"V  c #4B4B4B",
"C  c #415A44",
"Z  c #494F54",
"A  c #4F5254",
"S  c #4A535B",
"D  c #535353",
"F  c #545759",
"G  c #555A5D",
"H  c #5B5B5C",
"J  c #7A4747",
"K  c #416445",
"L  c #446E48",
"P  c #48684D",
"I  c #445563",
"U  c #465967",
"Y  c #4A5E6E",
"T  c #545E65",
"R  c #5A5E61",
"E  c #4B5F70",
"W  c #4D606F",
"Q  c #5D6164",
"!  c #4D6172",
"~  c #556674",
"^  c #586772",
"/  c #5C6B76",
"(  c #626263",
")  c #626669",
"_  c #65696C",
"`  c #6A6C6E",
"'  c #6A6E71",
"]  c #636F79",
"[  c #6D7175",
"{  c #64717A",
"}  c #69737C",
"|  c #6E787F",
" . c #757575",
".. c #707478",
"X. c #73787B",
"o. c #7B7C7C",
"O. c #922929",
"+. c #893C3C",
"@. c #B33131",
"#. c #985959",
"$. c #A24747",
"%. c #AF6666",
"&. c #B16767",
"*. c #BC6F6F",
"=. c #C65757",
"-. c #4A804F",
";. c #57835C",
":. c #509357",
">. c #58955E",
",. c #579F5F",
"<. c #5B8B60",
"1. c #5E9063",
"2. c #629A68",
"3. c #58A060",
"4. c #5DAE65",
"5. c #6BAB72",
"6. c #6FB176",
"7. c #71B477",
"8. c #71B478",
"9. c #74BA7B",
"0. c #63C86D",
"q. c #77C07F",
"w. c #72E67E",
"e. c #72E97E",
"r. c #6FF07D",
"t. c #6C7780",
"y. c #747C83",
"u. c #797F84",
"i. c #7E8387",
"p. c #7F8589",
"a. c #76EE81",
"s. c #838383",
"d. c #81868A",
"f. c #83898C",
"g. c #8A8C8C",
"h. c #90908F",
"j. c #878C91",
"k. c #8B8F91",
"l. c #8F9295",
"z. c #8E959A",
"x. c #949494",
"c. c #949799",
"v. c #96989B",
"b. c #999B9C",
"n. c #9C9EA1",
"m. c #9FA0A2",
"M. c #A4A4A5",
"N. c #ADADAD",
"B. c #AFAFB0",
"V. c #AFB0B0",
"C. c #B5B5B5",
"Z. c #B9B9B9",
"A. c #BBBBBB",
"S. c #BCBCBC",
"D. c #E48787",
"F. c #E68888",
"G. c #80F28B",
"H. c #93F79D",
"J. c #90FA9B",
"K. c #95FB9F",
"L. c #95FC9F",
"P. c #96FCA0",
"I. c #99FFA3",
"U. c #99FFA4",
"Y. c #C2C2C2",
"T. c #CACACA",
/* pixels */
"0 0 0 0 0 0 0 0 0 0 0 0 0 0 0 0 0 0 0 0 0 0 0 0 0 0 0 0 0 0 0 0 0 0 0 0 0 0 0 0 0 0 0 0 0 0 0 0 0 0 0 0 0 0 0 0 0 0 0 0 0 0 0 0 ",
"0 0 0 0 0 0 0 0 0 0 0 0 0 0 0 0 0 0 0 0 0 0 0 0 0 0 0 0 0 0 0 0 0 0 0 0 0 0 0 0 0 0 0 0 0 0 0 0 0 0 0 0 0 0 0 0 0 0 0 0 0 0 0 0 ",
"0 0 0 0 0                                                                                                             0 0 0 0 0 ",
"0 0 0 0 0 ( ( ( ( ( ( ( ( ( ( ( ( ( D     r B N N N N N N N N N N N N N N N N N N N N N N N N N N N N N N N N B z e w 0 0 0 0 0 ",
"0 0     u Y.S.S.S.S.S.S.S.S.S.S.S.Y.b.    Q j.f.f.f.f.f.f.f.f.f.f.f.f.f.f.f.f.f.f.f.f.f.f.f.f.f.f.f.f.f.f.f.f.f.t.! U o   0 0 0 ",
"0 0     u A.C.C.C.C.C.C.C.C.C.C.C.A.x.    R f.i.i.i.p.p.p.p.p.p.p.p.p.p.p.p.p.p.p.p.p.p.p.p.p.p.p.p.p.p.p.p.i.d.} Y I o   0 0 0 ",
"0 0     u A.C.C.C.C.C.C.C.C.C.C.C.A.x.    R f.i.i.i.X.X.X.X.X.X.X.X.X.X.X.X.X.X.X.X.X.X.X.X.X.X.X.X.X.X.X.X.i.d.} Y I o   0 0 0 ",
"0 0     u A.C.C.C.C.C.C.C.C.C.C.C.A.x.    R f.i.d...# O O O O O O O O O O O O O O O O O O O O O O O O O O O ` f.} Y I o   0 0 0 ",
"0 0     u A.C.C.C.C.C.C.C.C.C.C.C.A.x.    R f.i.d...X     . X X X X X X X X X X X X X X X X X X X X X X     ) f.} Y I o   0 0 0 ",
"0 0     u A.C.C.C.A.S.S.S.S.C.C.C.A.x.    R f.i.d...O   $ 3 2 2 2 2 2 2 2 2 2 2 2 2 2 2 2 2 2 2 2 2 3 -     ) f.} Y I o   0 0 0 ",
"0 0     u A.C.C.A.x.` ` ` ` M.A.C.A.x.    R f.i.d...O   $ 3 3 7 5 5 5 5 5 5 5 5 5 4 5 5 5 5 5 5 7 4 3 -     ) f.} Y I o   0 0 0 ",
"0 0     u A.C.A.Y.D         x.Y.A.S.x.    R f.i.d...O   $ 3 4 t t t t t t t t t t t t t t t t t t 7 2 -     ) f.} Y I o   0 0 0 ",
"0 0     u S.C.D M H o. . . .V M ' n.o.    R f.i.d...O   $ 3 4 t t t t <.9.7.8.6.g 7 ;.9.7.7.7.C t 7 2 -     ) f.} Y I o   0 0 0 ",
"0 0     u S.N.%   H Y.A.A.A.2   M j.`     R f.i.d...O   $ 3 4 t t t q 9.I.K.P.H.C 7 5.I.K.L.L.P 7 7 2 -     ) f.} Y I o   0 0 0 ",
"0 0     u S.N.*   H Y.N.k.g.*   M j.`     R f.i.d...O   $ 3 4 t t t r 4.a.e.a.w.v 7 3.a.e.e.e.K t 7 2 -     ) f.} Y I o   0 0 0 ",
"0 0     u S.N.*   H C.M.i.i.*   M j.`     R f.i.d...O   $ 3 4 t t t r 4.a.w.e.w.v 7 ,.a.w.e.e.K t 7 2 -     ) f.} Y I o   0 0 0 ",
"0 0     u S.N.*   M j.d.d.i.*   M j.`     R f.i.d...O   $ 3 4 t t t q 9.I.K.P.H.C 7 5.U.K.L.L.P r 7 2 -     ) f.} Y I o   0 0 0 ",
"0 0     u S.N.*   z y.| | | &   M j.`     R f.i.d...O   $ 3 4 t t t t 1.9.9.9.9.g 7 ;.q.9.9.9.C t 7 2 -     ) f.} Y I o   0 0 0 ",
"0 0     u S.N.%   8 ! Y ! Y @   M j.`     R f.i.d...O   $ 3 4 t t t t t t q 7 7 7 7 7 7 7 t t t t 7 2 -     ) f.} Y I o   0 0 0 ",
"0 0     u A.C._ ( c w 8 8 8 z M ) f.`     R f.i.d...O   $ 3 4 t t t t t t g :.:.2.2.>.:.-.t t t t 7 2 -     ) f.} Y I o   0 0 0 ",
"0 0     u A.C.A.Y.H         ` f.d.d.`     R f.i.d...O   $ 3 4 t t t t t r L e.e.J.I.G.r.0.t t t t 7 2 -     ) f.} Y I o   0 0 0 ",
"0 0     u A.C.C.A.g.Q Q Q Q o.i.c.B.g.    R f.i.d...O   $ 3 3 4 4 4 4 4 3 7 h h v v h h f 4 4 4 4 3 3 -     ) f.} Y I o   0 0 0 ",
"0 0     u A.C.C.A.n.f.f.f.f.d.d.m.S.x.    R f.i.d...O   % 2 - - - - - - - - - - * * - - - - - - - - 2 *     ) f.} Y I o   0 0 0 ",
"0 0     u A.C.C.C.C.V.C.C.C.C.V.C.A.x.    R f.i.d...X                                                       ) f.} Y I o   0 0 0 ",
"0 0     u A.C.C.C.C.C.C.C.C.C.A.C.A.x.    R f.i.d...> * & & & & & & & & & & & & & & & & & & & & & & & & * * ) i.] Y I o   0 0 0 ",
"0 0     u A.C.C.C.C.C.C.C.C.C.C.C.A.x.    R f.d.d.d.i.i.i.i.i.i.i.i.i.i.i.i.i.i.i.i.i.i.i.i.i.i.i.i.i.i.i.i.^ Y Y Y I o   0 0 0 ",
"0 0     u A.C.C.C.C.C.C.C.C.C.C.C.A.x.    S t.} } } } } } } } } } } } } } } } } } } } } } } } } } } } } } } W Y Y Y I o   0 0 0 ",
"0 0     u Y.S.S.S.S.S.S.S.S.S.S.S.Y.b.    b ! Y Y Y Y Y Y Y Y Y Y Y Y Y Y Y Y Y Y Y Y Y Y Y Y Y Y Y W Y Y Y W W W ! I o   0 0 0 ",
"0 0 0 0 0 B M M M M M M M M M M M B u     & 1 1 1 1 1 1 1 1 1 1 1 1 1 1 1 1 1 1 1 1 1 1 1 1 1 1 1 1 1 1 1 1 1 1 1 1 1 0 0 0 0 0 ",
"0 0 0 0 0                                                                                                             0 0 0 0 0 ",
"0 0 0 0 0 0 0 0 0 0 0 0     #.*.$.O.p      .M.b.b.x.[ ' ' ' ' [ [ [ [ 2             8 I l     0 0 0 0 0 0 0 0 0 0 0 0 0 0 0 0 0 ",
"0 0 0 0 0 0 0 0 0 0 0 0     %.D.=.@.O.     .M.N.S.C.f.p.d.d.u.......X.y * #     . . e U x     0 0 0 0 0 0 0 0 0 0 0 0 0 0 0 0 0 ",
"0 0 0 0 0 0 0 0 0 0 0 0     &.F.=.@.O.      X D Y.C.f.d.d.j.F          .S.o.    6 s = X       0 0 0 0 0 0 0 0 0 0 0 0 0 0 0 0 0 ",
"0 0 0 0 0 0 0 0 0 0 0 0     J #.+.p i r r 5 3 V g.o.R H R Q Z r r r r s.C.o.    a d =         0 0 0 0 0 0 0 0 0 0 0 0 0 0 0 0 0 ",
"0 0 0 0 0 0 0 0 0 0 0 0             , C.S.x.f.B             u S.A.A.S.c.d.R     a d =         0 0 0 0 0 0 0 0 0 0 0 0 0 0 0 0 0 ",
"0 0 0 0 0 0 0 0 0 0 0 0     V _ 5   * v.b.y.{ z   O H ( ( ( s.A.C.b.b.y.{ Z     a d =         0 0 0 0 0 0 0 0 0 0 0 0 0 0 0 0 0 ",
"0 0 0 0 0 0 0 0 0 0 0 0     x.T.H   % i.p.^ Y e   % C.S.S.S.A.C.C.d.i./ Y x     a d =         0 0 0 0 0 0 0 0 0 0 0 0 0 0 0 0 0 ",
"0 0 0 0 0 0 0 0 0 0 0 0     x.Y.D   @ ^ / ! ! e   % N.A.C.C.C.C.C.f.i./ Y x     a d =         0 0 0 0 0 0 0 0 0 0 0 0 0 0 0 0 0 ",
"0 0 0 0 0 0 0 0 0 0 0 0     x.Y.H X # I U U Y w   % M.N.N.N.C.C.C.f.d./ ! x     a d =         0 0 0 0 0 0 0 0 0 0 0 0 0 0 0 0 0 ",
"0 0 0 0 0 0 0 0 0 0 0 0     x.S.l.[ Q + O O O       % % % % D Y.A.C.C.k.y.G     a d =         0 0 0 0 0 0 0 0 0 0 0 0 0 0 0 0 0 ",
"0 0 0 0 0 0 0 0 0 0 0 0     x.S.b.d.'     # * 2 5 3 * * * * M x.g.g.h.k.x.)     a d =         0 0 0 0 0 0 0 0 0 0 0 0 0 0 0 0 0 ",
"0 0 0 0 0 0 0 0 0 0 0 0     x.S.b.p.`     H i.v.A.B.d.i.i.f.A         o.T.s.    a d =         0 0 0 0 0 0 0 0 0 0 0 0 0 0 0 0 0 ",
"0 0 0 0 0 0 0 0 0 0 0 0     x.S.b.p.`     ` b.M.A.C.d.i.p.d.) r r r r H  .V     = ; < 4 :     0 0 0 0 0 0 0 0 0 0 0 0 0 0 0 0 0 ",
"0 0 0 0 0 0 0 0 0 0 0 0     x.S.b.p.`     s.S.C.C.C.d.i.i.i.p.d.d.d.f.4             e ~ m     0 0 0 0 0 0 0 0 0 0 0 0 0 0 0 0 0 ",
"0 0 0 0 0 0 0 0 0 0 0 0     x.S.b.p.`     s.S.C.C.C.d.i.i.i.i.i.i.i.d.S k k k k k k T y.T     0 0 0 0 0 0 0 0 0 0 0 0 0 0 0 0 0 ",
"0 0 0 0 0 0 0 0 0 0 0 0     x.S.b.p.`     s.S.C.C.C.d.i.i.i.i.i.i.i.d./ Y W W W W Y } f.`     0 0 0 0 0 0 0 0 0 0 0 0 0 0 0 0 0 ",
"0 0 0 0 0 0 0 0 0 0 0 0     x.Y.b.d.'     s.A.C.C.B.d.i.i.i.i.i.i.i.i.u.y.y.y.y.y.y.i.d.`     0 0 0 0 0 0 0 0 0 0 0 0 0 0 0 0 0 ",
"0 0 0 0 0 0 0 0 0 0 0 0     s.M.f...Q     s.S.C.C.B.d.i.i.i.i.i.i.i.i.i.p.p.p.p.p.p.i.d.`     0 0 0 0 0 0 0 0 0 0 0 0 0 0 0 0 0 ",
"0 0 0 0 0 0 0 0 0 0 0 0 0 0 O O O O X     s.S.C.C.C.d.i.d.d.d.i.i.i.i.i.i.i.i.i.i.i.i.d.`     0 0 0 0 0 0 0 0 0 0 0 0 0 0 0 0 0 ",
"0 0 0 0 0 0 0 0 0 0 0 0 0 0 0 0 0 0 0     s.S.C.C.C.d.p._ G _ p.i.i.i.i.i.i.i.i.i.i.i.d.`     0 0 0 0 0 0 0 0 0 0 0 0 0 0 0 0 0 ",
"0 0 0 0 0 0 0 0 0 0 0 0 0 0 0 0 0 0 0     s.S.C.C.B.d.d.5   5 f.d.d.d.d.d.d.d.d.i.i.i.d.`     0 0 0 0 0 0 0 0 0 0 0 0 0 0 0 0 0 ",
"0 0 0 0 0 0 0 0 0 0 0 0 0 0 0 0 0 0 0     s.S.C.C.C.d.d.9   4 } { { { { { { { { i.p.i.d.`     0 0 0 0 0 0 0 0 0 0 0 0 0 0 0 0 0 ",
"0 0 0 0 0 0 0 0 0 0 0 0 0 0 0 0 0 0 0     s.S.C.C.C.d.d.9   , ! Y Y Y Y Y Y Y Y y.i.i.d.`     0 0 0 0 0 0 0 0 0 0 0 0 0 0 0 0 0 ",
"0 0 0 0 0 0 0 0 0 0 0 0 0 0 0 0 0 0 0     s.S.C.C.C.d.d.9   O > > > > > > > > , k.N.l.d.`     0 0 0 0 0 0 0 0 0 0 0 0 0 0 0 0 0 ",
"0 0 0 0 0 0 0 0 0 0 0 0 0 0 0 0 0 0 0     s.S.C.C.C.d.d.9                       v.S.v.d.`     0 0 0 0 0 0 0 0 0 0 0 0 0 0 0 0 0 ",
"0 0 0 0 0 0 0 0 0 0 0 0 0 0 0 0 0 0 0     s.S.C.C.C.d.d.9   0 0 0 0 0 0 0 0   X x.S.v.d.`     0 0 0 0 0 0 0 0 0 0 0 0 0 0 0 0 0 ",
"0 0 0 0 0 0 0 0 0 0 0 0 0 0 0 0 0 0 0     s.S.C.C.C.d.d.9   0 0 0 0 0 0 0 0   X x.S.z.y.Q     0 0 0 0 0 0 0 0 0 0 0 0 0 0 0 0 0 ",
"0 0 0 0 0 0 0 0 0 0 0 0 0 0 0 0 0 0 0     s.S.C.C.C.d.d.9   0 0 0 0 0 0 0 0   X b.Y.p.Y n     0 0 0 0 0 0 0 0 0 0 0 0 0 0 0 0 0 ",
"0 0 0 0 0 0 0 0 0 0 0 0 0 0 0 0 0 0 0     s.S.C.C.C.d.d.9   0 0 0 0 0 0 0 0     X.z.{ Y n     0 0 0 0 0 0 0 0 0 0 0 0 0 0 0 0 0 ",
"0 0 0 0 0 0 0 0 0 0 0 0 0 0 0 0 0 0 0     s.Y.S.S.C.f.f.q   0 0 0 0 0 0 0 0     m E Y ! m     0 0 0 0 0 0 0 0 0 0 0 0 0 0 0 0 0 ",
"0 0 0 0 0 0 0 0 0 0 0 0 0 0 0 0 0 0 0     r B M B M r r #   0 0 0 0 0 0 0 0     > 1 1 1 :     0 0 0 0 0 0 0 0 0 0 0 0 0 0 0 0 0 ",
"0 0 0 0 0 0 0 0 0 0 0 0 0 0 0 0 0 0 0                       0 0 0 0 0 0 0 0                   0 0 0 0 0 0 0 0 0 0 0 0 0 0 0 0 0 ",
"0 0 0 0 0 0 0 0 0 0 0 0 0 0 0 0 0 0 0 0 0 0 0 0 0 0 0 0 0 0 0 0 0 0 0 0 0 0 0 0 0 0 0 0 0 0 0 0 0 0 0 0 0 0 0 0 0 0 0 0 0 0 0 0 ",
"0 0 0 0 0 0 0 0 0 0 0 0 0 0 0 0 0 0 0 0 0 0 0 0 0 0 0 0 0 0 0 0 0 0 0 0 0 0 0 0 0 0 0 0 0 0 0 0 0 0 0 0 0 0 0 0 0 0 0 0 0 0 0 0 "
};
