/* XPM */
static char *_fee2024a9444801bb611c1ea4b87f00no62KuGEP7PDRkwm[] = {
/* columns rows colors chars-per-pixel */
"64 64 165 2 ",
"   c #010101",
".  c #060906",
"X  c #070708",
"o  c #060809",
"O  c #0A0A0A",
"+  c #0B0F11",
"@  c #0E1114",
"#  c #141414",
"$  c #151916",
"%  c #161718",
"&  c #171819",
"*  c #1A1B1B",
"=  c #132211",
"-  c #1D221E",
";  c #1D321B",
":  c #171D22",
">  c #191E22",
",  c #1C2124",
"<  c #1D2923",
"1  c #1D242A",
"2  c #212622",
"3  c #242A25",
"4  c #262D29",
"5  c #292E2A",
"6  c #273C26",
"7  c #2C322C",
"8  c #252E36",
"9  c #2D2F30",
"0  c #2F283A",
"q  c #2F3531",
"w  c #263138",
"e  c #29343C",
"r  c #323534",
"t  c #323B33",
"y  c #353739",
"u  c #3B3B3B",
"i  c #6E2626",
"p  c #7A2222",
"a  c #254122",
"s  c #2E4F2A",
"d  c #30532C",
"f  c #314F35",
"g  c #3C523E",
"h  c #355838",
"j  c #37583A",
"k  c #2F3C45",
"l  c #343F47",
"z  c #393E42",
"x  c #35434E",
"c  c #3F4448",
"v  c #3D5A41",
"b  c #364450",
"n  c #3C4A56",
"m  c #3D4C59",
"M  c #454646",
"N  c #444749",
"B  c #46494B",
"V  c #4B4B4B",
"C  c #415A44",
"Z  c #494F54",
"A  c #4F5254",
"S  c #4A535B",
"D  c #535353",
"F  c #545759",
"G  c #555A5D",
"H  c #5B5B5C",
"J  c #7A4747",
"K  c #416445",
"L  c #446E48",
"P  c #48684D",
"I  c #445563",
"U  c #465967",
"Y  c #4A5E6E",
"T  c #545E65",
"R  c #5A5E61",
"E  c #4B5F70",
"W  c #4D606F",
"Q  c #5D6164",
"!  c #4D6172",
"~  c #556674",
"^  c #586772",
"/  c #5C6B76",
"(  c #626263",
")  c #626669",
"_  c #65696C",
"`  c #6A6C6E",
"'  c #6A6E71",
"]  c #636F79",
"[  c #6D7175",
"{  c #64717A",
"}  c #69737C",
"|  c #6E787F",
" . c #757575",
".. c #707478",
"X. c #73787B",
"o. c #7B7C7C",
"O. c #922929",
"+. c #893C3C",
"@. c #B33131",
"#. c #985959",
"$. c #A24747",
"%. c #AF6666",
"&. c #B16767",
"*. c #BC6F6F",
"=. c #C65757",
"-. c #4A804F",
";. c #57835C",
":. c #509357",
">. c #58955E",
",. c #579F5F",
"<. c #5B8B60",
"1. c #5E9063",
"2. c #629A68",
"3. c #58A060",
"4. c #5DAE65",
"5. c #6BAB72",
"6. c #6FB176",
"7. c #71B477",
"8. c #71B478",
"9. c #74BA7B",
"0. c #63C86D",
"q. c #77C07F",
"w. c #72E67E",
"e. c #72E97E",
"r. c #6FF07D",
"t. c #6C7780",
"y. c #747C83",
"u. c #797F84",
"i. c #7E8387",
"p. c #7F8589",
"a. c #76EE81",
"s. c #838383",
"d. c #81868A",
"f. c #83898C",
"g. c #8A8C8C",
"h. c #90908F",
"j. c #878C91",
"k. c #8B8F91",
"l. c #8F9295",
"z. c #8E959A",
"x. c #949494",
"c. c #949799",
"v. c #96989B",
"b. c #999B9C",
"n. c #9C9EA1",
"m. c #9FA0A2",
"M. c #A4A4A5",
"N. c #ADADAD",
"B. c #AFAFB0",
"V. c #AFB0B0",
"C. c #B5B5B5",
"Z. c gray73",
"A. c #BCBCBC",
"S. c #E48787",
"D. c #E68888",
"F. c #80F28B",
"G. c #93F79D",
"H. c #90FA9B",
"J. c #95FB9F",
"K. c #95FC9F",
"L. c #96FCA0",
"P. c #99FFA3",
"I. c #99FFA4",
"U. c #C2C2C2",
"Y. c #CACACA",
/* pixels */
"0 0 0 0 0 0 0 0 0 0 0 0 0 0 0 0 0 0 0 0 0 0 0 0 0 0 0 0 0 0 0 0 0 0 0 0 0 0 0 0 0 0 0 0 0 0 0 0 0 0 0 0 0 0 0 0 0 0 0 0 0 0 0 0 ",
"0 0 0 0 0 0 0 0 0 0 0 0 0 0 0 0 0 0 0 0 0 0 0 0 0 0 0 0 0 0 0 0 0 0 0 0 0 0 0 0 0 0 0 0 0 0 0 0 0 0 0 0 0 0 0 0 0 0 0 0 0 0 0 0 ",
"0 0 0 0 0                                                                                                             0 0 0 0 0 ",
"0 0 0 0 0 w e z N N N N N N N N N N N N N N N N N N N N N N N N N N N N N N N N N B r     D ( ( ( ( ( ( ( ( ( ( ( ( ( 0 0 0 0 0 ",
"0 0 0   o U ! t.f.f.f.f.f.f.f.f.f.f.f.f.f.f.f.f.f.f.f.f.f.f.f.f.f.f.f.f.f.f.f.f.f.j.Q     v.U.A.A.A.A.A.A.A.A.A.A.A.U.u     0 0 ",
"0 0 0   o I Y } d.i.p.p.p.p.p.p.p.p.p.p.p.p.p.p.p.p.p.p.p.p.p.p.p.p.p.p.p.p.i.i.i.f.R     c.Z.C.C.C.C.C.C.C.C.C.C.C.Z.u     0 0 ",
"0 0 0   o I Y } d.i.X.X.X.X.X.X.X.X.X.X.X.X.X.X.X.X.X.X.X.X.X.X.X.X.X.X.X.X.i.i.i.f.R     c.Z.C.C.C.C.C.C.C.C.C.C.C.Z.u     0 0 ",
"0 0 0   o I Y } f._ O O O O O O O O O O O O O O O O O O O O O O O O O O O # ..d.i.f.R     c.Z.C.C.C.C.C.C.C.C.C.C.C.Z.u     0 0 ",
"0 0 0   o I Y } f.)     . . . . . . . . . . . . . . . . . . . . . . .     . ..d.i.f.R     c.Z.C.C.C.C.C.C.C.C.C.C.C.Z.u     0 0 ",
"0 0 0   o I Y } f.)     - 2 2 2 2 2 2 2 2 2 2 2 2 2 2 2 2 2 2 2 2 2 2 $   O ..d.i.f.R     c.Z.C.C.C.A.A.A.A.Z.C.C.C.Z.u     0 0 ",
"0 0 0   o I Y } f.)     - 2 3 7 5 5 5 5 5 5 5 5 5 5 5 5 5 5 5 5 7 3 2 $   O ..d.i.f.R     c.Z.C.Z.M.` ` ` ` x.Z.C.C.Z.u     0 0 ",
"0 0 0   o I Y } f.)     - 2 7 t t r t t t t t t t t t t t t t t t 4 2 $   O ..d.i.f.R     c.A.Z.U.x.        F U.Z.C.Z.u     0 0 ",
"0 0 0   o I Y } f.)     - 2 7 t C 7.7.7.9.;.7 g 6.8.7.9.<.t t t t 4 2 $   O ..d.i.f.R     o.n.` M V  . . .o.H M D C.A.u     0 0 ",
"0 0 0   o I Y } f.)     - 2 7 r P K.K.J.I.5.5 C G.L.J.P.9.q t t t 4 2 $   O ..d.i.f.R     _ j.M   2 Z.Z.Z.U.H   # N.A.u     0 0 ",
"0 0 0   o I Y } f.)     - 2 7 t K e.e.e.a.3.7 v w.a.e.a.4.r t t t 4 2 $   O ..d.i.f.R     ` j.M   * g.k.N.U.H   * N.A.u     0 0 ",
"0 0 0   o I Y } f.)     - 2 7 t K e.e.w.a.,.7 v w.e.w.a.4.r t t t 4 2 $   O ..d.i.f.R     ` j.M   * i.i.M.C.H   * N.A.u     0 0 ",
"0 0 0   o I Y } f.)     - 2 7 r P K.K.J.I.5.7 C G.L.J.P.9.q t t t 4 2 $   O ..d.i.f.R     ` j.M   * i.d.d.j.M   * N.A.u     0 0 ",
"0 0 0   o I Y } f.)     - 2 7 t C 9.9.9.q.;.7 g 9.9.9.9.1.t t t t 4 2 $   O ..d.i.f.R     ` j.M   & | | | y.z   * N.A.u     0 0 ",
"0 0 0   o I Y } f.)     - 2 7 t t t t 7 7 7 7 7 7 7 q t t t t t t 4 2 $   O ..d.i.f.R     ` j.M   @ Y ! Y ! 8   # N.A.u     0 0 ",
"0 0 0   o I Y } f.)     - 2 7 t t t t -.:.>.2.2.:.:.g t t t t t t 4 2 $   O ..d.i.f.R     ` f.) M z 8 8 8 w c ( ` C.Z.u     0 0 ",
"0 0 0   o I Y } f.)     - 2 7 t t t t 0.r.F.P.H.e.e.L r t t t t t 4 2 $   O ..d.i.f.R     ` d.d.f._         H U.Z.C.Z.u     0 0 ",
"0 0 0   o I Y } f.)     - 2 3 3 3 3 3 f j j v v j j 6 3 3 3 3 3 3 3 2 $   O ..d.i.f.R     g.B.c.i.o.Q Q Q Q g.Z.C.C.Z.u     0 0 ",
"0 0 0   o I Y } f.)     * 2 - - - - - - - - * * - - - - - - - - - - 2 #   O ..d.i.f.R     c.A.m.d.d.f.f.f.f.n.Z.C.C.Z.u     0 0 ",
"0 0 0   o I Y } f.)                                                       . ..d.i.f.R     c.Z.C.V.C.C.C.C.V.C.C.C.C.Z.u     0 0 ",
"0 0 0   o I Y ] i.) * * & & & & & & & & & & & & & & & & & & & & & & & & * > ..d.i.f.R     c.Z.C.C.C.C.C.C.C.C.C.C.C.Z.u     0 0 ",
"0 0 0   o I Y Y Y ^ i.i.i.i.i.i.i.i.i.i.i.i.i.i.i.i.i.i.i.i.i.i.i.i.i.i.i.i.d.d.d.f.R     c.Z.C.C.C.C.C.C.C.C.C.C.C.Z.u     0 0 ",
"0 0 0   o I Y Y Y W } } } } } } } } } } } } } } } } } } } } } } } } } } } } } } } t.S     c.Z.C.C.C.C.C.C.C.C.C.C.C.Z.u     0 0 ",
"0 0 0   o U ! W W W Y Y Y Y Y Y Y Y Y Y Y Y Y Y Y Y W Y Y Y Y Y Y Y Y Y Y Y Y Y Y ! b     v.U.A.A.A.A.Z.A.A.A.A.A.A.U.u     0 0 ",
"0 0 0 0 0 1 1 1 1 1 1 1 1 1 1 1 1 1 1 1 1 1 1 1 1 1 1 1 1 1 1 1 1 1 1 1 1 1 1 1 1 1 &     u B M M M M M M M M M M M B 0 0 0 0 0 ",
"0 0 0 0 0                                                                                                             0 0 0 0 0 ",
"0 0 0 0 0 0 0 0 0 0 0 0 0 0 0 0 0     l I 8             2 [ [ [ [ ' ' ' ' [ c.v.v.M. .    p O.$.*.#.    0 0 0 0 0 0 0 0 0 0 0 0 ",
"0 0 0 0 0 0 0 0 0 0 0 0 0 0 0 0 0     x U e . .     # * y X.......u.d.d.p.f.C.A.N.M. .    O.@.=.S.%.    0 0 0 0 0 0 0 0 0 0 0 0 ",
"0 0 0 0 0 0 0 0 0 0 0 0 0 0 0 0 0       . = s 6     o.A. .        F j.d.d.f.C.U.F .       O.@.=.D.&.    0 0 0 0 0 0 0 0 0 0 0 0 ",
"0 0 0 0 0 0 0 0 0 0 0 0 0 0 0 0 0         = d a     o.C.s.r r r r Z Q R H R o.g.V 3 4 r r i p +.#.J     0 0 0 0 0 0 0 0 0 0 0 0 ",
"0 0 0 0 0 0 0 0 0 0 0 0 0 0 0 0 0         = d a     R d.c.A.Z.Z.A.u             N f.c.A.C.,             0 0 0 0 0 0 0 0 0 0 0 0 ",
"0 0 0 0 0 0 0 0 0 0 0 0 0 0 0 0 0         = d a     Z { y.b.b.C.Z.s.( ( ( H O   z } y.b.v.*   5 ` V     0 0 0 0 0 0 0 0 0 0 0 0 ",
"0 0 0 0 0 0 0 0 0 0 0 0 0 0 0 0 0         = d a     x Y / i.d.C.C.Z.A.A.A.C.#   e Y ^ i.i.%   H Y.c.    0 0 0 0 0 0 0 0 0 0 0 0 ",
"0 0 0 0 0 0 0 0 0 0 0 0 0 0 0 0 0         = d a     x Y / i.f.C.C.C.C.C.Z.N.#   e ! W / ^ @   F U.x.    0 0 0 0 0 0 0 0 0 0 0 0 ",
"0 0 0 0 0 0 0 0 0 0 0 0 0 0 0 0 0         = d a     x ! / d.f.C.C.C.N.N.N.M.#   w Y U U U # . H U.x.    0 0 0 0 0 0 0 0 0 0 0 0 ",
"0 0 0 0 0 0 0 0 0 0 0 0 0 0 0 0 0         = d a     G y.k.C.C.Z.U.D # # # #       O O O + Q [ x.A.x.    0 0 0 0 0 0 0 0 0 0 0 0 ",
"0 0 0 0 0 0 0 0 0 0 0 0 0 0 0 0 0         = d a     ) c.k.h.g.g.x.M * * * * 3 4 2 * #     ' d.b.A.x.    0 0 0 0 0 0 0 0 0 0 0 0 ",
"0 0 0 0 0 0 0 0 0 0 0 0 0 0 0 0 0         = d a     s.Y.o.        A f.i.i.d.B.Z.v.i.H     ` p.b.A.x.    0 0 0 0 0 0 0 0 0 0 0 0 ",
"0 0 0 0 0 0 0 0 0 0 0 0 0 0 0 0 0     : 4 < ; =     V  .H r r r r ) d.i.i.d.C.Z.M.b.`     ` p.b.A.x.    0 0 0 0 0 0 0 0 0 0 0 0 ",
"0 0 0 0 0 0 0 0 0 0 0 0 0 0 0 0 0     m ~ e             4 f.d.d.d.p.i.i.i.d.C.C.C.A.s.    ` p.b.A.x.    0 0 0 0 0 0 0 0 0 0 0 0 ",
"0 0 0 0 0 0 0 0 0 0 0 0 0 0 0 0 0     T y.T k k k k k k S d.i.i.i.i.i.i.i.d.C.C.C.A.s.    ` p.b.A.x.    0 0 0 0 0 0 0 0 0 0 0 0 ",
"0 0 0 0 0 0 0 0 0 0 0 0 0 0 0 0 0     _ f.} Y W W W W Y / d.i.i.i.i.i.i.i.d.C.C.C.A.s.    ` p.b.A.x.    0 0 0 0 0 0 0 0 0 0 0 0 ",
"0 0 0 0 0 0 0 0 0 0 0 0 0 0 0 0 0     _ d.i.y.y.y.y.y.y.u.i.i.i.i.i.i.i.i.d.C.C.C.A.s.    ' d.b.U.x.    0 0 0 0 0 0 0 0 0 0 0 0 ",
"0 0 0 0 0 0 0 0 0 0 0 0 0 0 0 0 0     _ d.i.p.p.p.p.p.p.i.i.i.i.i.i.i.i.i.d.C.C.C.A.s.    Q ..f.N.s.    0 0 0 0 0 0 0 0 0 0 0 0 ",
"0 0 0 0 0 0 0 0 0 0 0 0 0 0 0 0 0     _ d.i.i.i.i.i.i.i.i.i.i.i.i.d.d.d.i.d.C.C.C.A.s.    X O O O O 0 0 0 0 0 0 0 0 0 0 0 0 0 0 ",
"0 0 0 0 0 0 0 0 0 0 0 0 0 0 0 0 0     _ d.i.i.i.i.i.i.i.i.i.i.i.p._ G _ p.d.C.C.C.A.s.    0 0 0 0 0 0 0 0 0 0 0 0 0 0 0 0 0 0 0 ",
"0 0 0 0 0 0 0 0 0 0 0 0 0 0 0 0 0     _ d.i.i.i.d.d.d.d.d.d.d.d.f.5   5 d.d.C.C.C.A.s.    0 0 0 0 0 0 0 0 0 0 0 0 0 0 0 0 0 0 0 ",
"0 0 0 0 0 0 0 0 0 0 0 0 0 0 0 0 0     _ d.i.p.i.{ { { { { { { { } 4   9 d.d.C.C.C.A.s.    0 0 0 0 0 0 0 0 0 0 0 0 0 0 0 0 0 0 0 ",
"0 0 0 0 0 0 0 0 0 0 0 0 0 0 0 0 0     _ d.i.i.y.Y Y Y Y Y Y Y Y ! ,   9 d.d.V.C.C.A.s.    0 0 0 0 0 0 0 0 0 0 0 0 0 0 0 0 0 0 0 ",
"0 0 0 0 0 0 0 0 0 0 0 0 0 0 0 0 0     _ d.l.N.k., > > > > > > > > O   9 d.d.V.C.C.A.s.    0 0 0 0 0 0 0 0 0 0 0 0 0 0 0 0 0 0 0 ",
"0 0 0 0 0 0 0 0 0 0 0 0 0 0 0 0 0     _ d.v.A.v.                      9 d.d.C.C.C.A.s.    0 0 0 0 0 0 0 0 0 0 0 0 0 0 0 0 0 0 0 ",
"0 0 0 0 0 0 0 0 0 0 0 0 0 0 0 0 0     _ d.v.A.c..   0 0 0 0 0 0 0 0   9 d.d.C.C.C.A.s.    0 0 0 0 0 0 0 0 0 0 0 0 0 0 0 0 0 0 0 ",
"0 0 0 0 0 0 0 0 0 0 0 0 0 0 0 0 0     Q y.z.A.c..   0 0 0 0 0 0 0 0   9 d.d.C.C.C.A.s.    0 0 0 0 0 0 0 0 0 0 0 0 0 0 0 0 0 0 0 ",
"0 0 0 0 0 0 0 0 0 0 0 0 0 0 0 0 0     n Y p.U.v..   0 0 0 0 0 0 0 0   9 d.d.C.C.C.A.s.    0 0 0 0 0 0 0 0 0 0 0 0 0 0 0 0 0 0 0 ",
"0 0 0 0 0 0 0 0 0 0 0 0 0 0 0 0 0     n Y { z.X.    0 0 0 0 0 0 0 0   9 d.d.C.C.C.A.s.    0 0 0 0 0 0 0 0 0 0 0 0 0 0 0 0 0 0 0 ",
"0 0 0 0 0 0 0 0 0 0 0 0 0 0 0 0 0     m ! Y E m     0 0 0 0 0 0 0 0   q f.f.C.A.A.U.s.    0 0 0 0 0 0 0 0 0 0 0 0 0 0 0 0 0 0 0 ",
"0 0 0 0 0 0 0 0 0 0 0 0 0 0 0 0 0     : 1 1 1 >     0 0 0 0 0 0 0 0   # r r M B M B r     0 0 0 0 0 0 0 0 0 0 0 0 0 0 0 0 0 0 0 ",
"0 0 0 0 0 0 0 0 0 0 0 0 0 0 0 0 0                   0 0 0 0 0 0 0 0                       0 0 0 0 0 0 0 0 0 0 0 0 0 0 0 0 0 0 0 ",
"0 0 0 0 0 0 0 0 0 0 0 0 0 0 0 0 0 0 0 0 0 0 0 0 0 0 0 0 0 0 0 0 0 0 0 0 0 0 0 0 0 0 0 0 0 0 0 0 0 0 0 0 0 0 0 0 0 0 0 0 0 0 0 0 ",
"0 0 0 0 0 0 0 0 0 0 0 0 0 0 0 0 0 0 0 0 0 0 0 0 0 0 0 0 0 0 0 0 0 0 0 0 0 0 0 0 0 0 0 0 0 0 0 0 0 0 0 0 0 0 0 0 0 0 0 0 0 0 0 0 "
};
