/* XPM */
static char *_ce58ccde69f4248e9df1ccab77fbf30P1LTLSIZoDLz7mL6[] = {
/* columns rows colors chars-per-pixel */
"64 64 23 1 ",
"  c #2F283A",
". c #302F42",
"X c #3F3656",
"o c #35475D",
"O c #364D65",
"+ c #3B4862",
"@ c #3D4D68",
"# c #37546D",
"$ c #395F79",
"% c #405774",
"& c #415875",
"* c #425B79",
"= c #803A46",
"- c #B25D4D",
"; c #DC8B58",
": c #3A6783",
"> c #3C718E",
", c #3D7796",
"< c #3D7897",
"1 c #3D7A99",
"2 c #3F81A1",
"3 c #3F83A4",
"4 c #418EB0",
/* pixels */
"       44444444444###    OOO44444444444    ,,,44444444444       ",
"       44444444444###    OOO44444444444    ,,,44444444444       ",
"       44444444444###    OOO44444444444    ,,,44444444444       ",
"       >>>>XXXXXXX444@@@@111XXXXXXXX444****444XXXXXXX4444       ",
"       >>>>XXXXXXX444@@@@111XXXXXXXX444****444XXXXXXX4444       ",
"       >>>>XXXXXXX444@@@@111XXXXXXXX444****444XXXXXXX4444       ",
"       >>>>XXXXXXX444@@@@111XXXXXXXX444****444XXXXXXX4444       ",
"       ::::*******444****444********444****444*******4444       ",
"       ::::*******444****444********444****444*******4444       ",
"       ::::*******444****444********444****444*******4444       ",
"       44444444444444****44444444444444****44444444444444       ",
"       44444444444444****44444444444444****44444444444444       ",
"       44444444444444****44444444444444****44444444444444       ",
"       &&&&**********XXXX**************XXXX**************       ",
"       &&&&**********XXXX**************XXXX**************       ",
"       &&&&**********XXXX**************XXXX**************       ",
"       &&&&**********XXXX**************XXXX**************       ",
"       <<<<4444444444****44444444444444****44444444444444       ",
"       <<<<4444444444****44444444444444****44444444444444       ",
"       <<<<4444444444****44444444444444****44444444444444       ",
"       >>>>XXXXXXX444****444XXXXXXXX444****444XXXXXXX4444       ",
"       >>>>XXXXXXX444****444XXXXXXXX444****444XXXXXXX4444       ",
"       >>>>XXXXXXX444****444XXXXXXXX444****444XXXXXXX4444       ",
"       >>>>XXXXXXX444****444XXXXXXXX444****444XXXXXXX4444       ",
"       3333*******444****444********444****444*******4444       ",
"       3333*******444****444********444****444*******4444       ",
"       3333*******444****444********444****444*******4444       ",
"       22224444444444****44444444444444****44444444444444       ",
"       22224444444444****44444444444444****44444444444444       ",
"       22224444444444****44444444444444****44444444444444       ",
"       %%%%**********XXXX**************XXXX**************       ",
"       %%%%**********XXXX**************XXXX**************       ",
"       %%%%**********XXXX**************XXXX**************       ",
"       %%%%**********XXXX**************XXXX**************       ",
"       **************************************************       ",
"       **************************************************       ",
"       **************************************************       ",
"       ++++**********4444444444444444444444XXX*******@@@@       ",
"       ++++**********4444444444444444444444XXX*******@@@@       ",
"       ++++**********4444444444444444444444XXX*******@@@@       ",
"           ********************************XXX*******           ",
"           ********************************XXX*******           ",
"           ********************************XXX*******           ",
"           ********************************XXX*******           ",
"oooo4444444**************===--------===****XXX***********$$$....",
"oooo4444444**************===--------===****XXX***********$$$....",
"oooo4444444**************===--------===****XXX***********$$$....",
"44444444444**************===;;;;;;;;===****XXX***********4444444",
"44444444444**************===;;;;;;;;===****XXX***********4444444",
"44444444444**************===;;;;;;;;===****XXX***********4444444",
"44444444444**************===;;;;;;;;===****XXX***********4444444",
"*************************--------------****XXX*******XXXX*******",
"*************************--------------****XXX*******XXXX*******",
"*************************--------------****XXX*******XXXX*******",
"****       ********************************XXX*******       ****",
"****       ********************************XXX*******       ****",
"****       ********************************XXX*******       ****",
"****XXXXXXX******************************************XXXXXXX****",
"****XXXXXXX******************************************XXXXXXX****",
"****XXXXXXX******************************************XXXXXXX****",
"****XXXXXXX******************************************XXXXXXX****",
"******************44444444444444444444444444444444XXXXXXX*******",
"******************44444444444444444444444444444444XXXXXXX*******",
"******************44444444444444444444444444444444XXXXXXX*******"
};
